<svg width="500" height="500" viewBox="0 0 500 500" fill="none" xmlns="http://www.w3.org/2000/svg">
<circle cx="250" cy="250" r="250" fill="#212121"/>
<path d="M312.188 409.406C306.948 409.406 302.333 407.925 298.346 404.963C293.788 401.545 291.51 397.329 291.51 392.316C286.269 378.531 282.965 367.308 281.598 358.649C280.23 349.991 275.73 325.438 268.097 284.992C262.286 254.344 258.412 229.735 256.476 211.164C246.336 248.762 235.455 280.606 223.834 306.696C210.39 336.888 201.674 360.529 197.687 377.619C199.054 380.24 199.737 382.803 199.737 385.31C199.737 390.437 197.459 394.652 192.901 397.956C188.8 401.032 184.129 402.57 178.888 402.57C163.507 402.57 155.816 395.677 155.816 381.892L150.519 360.188L131.891 276.447C124.485 248.192 111.839 207.689 93.9512 154.938C93.1536 152.432 92.7549 150.153 92.7549 148.103C92.7549 137.507 98.7363 132.209 110.699 132.209C118.105 132.209 123.801 136.254 127.789 144.343C129.84 148.444 133.998 160.236 140.265 179.719C146.987 200.34 153.709 225.178 160.431 254.23L177.008 329.768C189.199 301.512 201.332 267.105 213.409 226.545C220.815 201.822 226.454 184.675 230.328 175.104C240.582 149.925 250.551 137.336 260.235 137.336C268.211 137.336 273.85 141.381 277.154 149.47C281.256 159.268 285.414 182.624 289.63 219.538C291.909 238.223 295.782 260.668 301.251 286.872L315.948 354.035C331.215 317.349 350.299 267.731 373.199 205.183C374.452 201.765 377.301 190.998 381.744 172.883C385.048 159.553 389.093 149.185 393.878 141.779C397.979 135.513 403.334 132.38 409.942 132.38C421.45 132.38 427.203 138.076 427.203 149.47C427.203 151.407 425.38 157.103 421.734 166.56L414.898 185.017L405.499 215.437L354.742 338.825C350.071 352.383 342.039 372.093 330.646 397.956C326.544 405.59 320.392 409.406 312.188 409.406Z" fill="#77C277"/>
</svg>
